<svg width="27" height="11" viewBox="0 0 27 11" fill="none" xmlns="http://www.w3.org/2000/svg">
<path d="M0.47998 9.74839L1.58398 9.56839V0.83239L0.47998 0.66439V0.400391H5.07598C5.95598 0.400391 6.73598 0.60039 7.41598 1.00039C8.10398 1.39239 8.63998 1.95239 9.02398 2.68039C9.40798 3.40039 9.59998 4.24039 9.59998 5.20039C9.59998 6.16039 9.40798 7.00439 9.02398 7.73239C8.63998 8.45239 8.10398 9.01239 7.41598 9.41239C6.72798 9.80439 5.94798 10.0004 5.07598 10.0004H0.47998V9.74839ZM5.07598 9.71239C5.65998 9.71239 6.17598 9.57639 6.62398 9.30439C7.07998 9.03239 7.43598 8.62839 7.69198 8.09239C7.94798 7.54839 8.07598 6.89239 8.07598 6.12439V4.27639C8.07598 3.50839 7.94798 2.85639 7.69198 2.32039C7.43598 1.78439 7.07998 1.38039 6.62398 1.10839C6.17598 0.83639 5.65998 0.70039 5.07598 0.70039H2.90398V9.71239H5.07598Z" fill="#EEC643"/>
<path d="M11.8502 2.39239C11.6262 2.39239 11.4342 2.31639 11.2742 2.16439C11.1142 2.00439 11.0342 1.81239 11.0342 1.58839C11.0342 1.36439 11.1102 1.17639 11.2622 1.02439C11.4222 0.872391 11.6182 0.796391 11.8502 0.796391C12.0662 0.796391 12.2502 0.872391 12.4022 1.02439C12.5542 1.17639 12.6302 1.36439 12.6302 1.58839C12.6302 1.81239 12.5542 2.00439 12.4022 2.16439C12.2502 2.31639 12.0662 2.39239 11.8502 2.39239ZM10.5782 10.0004V9.76039L11.4182 9.64039V4.15639L10.5782 4.03639V3.79639H12.6182V9.64039L13.4582 9.76039V10.0004H10.5782Z" fill="#EEC643"/>
<path d="M17.3949 10.1204C16.8029 10.1204 16.2669 9.98839 15.7869 9.72439C15.3069 9.45239 14.9269 9.07239 14.6469 8.58439C14.3669 8.09639 14.2269 7.53239 14.2269 6.89239C14.2269 6.25239 14.3629 5.69239 14.6349 5.21239C14.9149 4.72439 15.2869 4.34839 15.7509 4.08439C16.2229 3.81239 16.7469 3.67639 17.3229 3.67639C17.8269 3.67639 18.2789 3.78839 18.6789 4.01239C19.0789 4.23639 19.3909 4.54839 19.6149 4.94839C19.8389 5.34039 19.9549 5.79239 19.9629 6.30439H15.5469V7.49239C15.5469 8.19639 15.7029 8.76839 16.0149 9.20839C16.3349 9.64039 16.7949 9.85639 17.3949 9.85639C17.9469 9.85639 18.4349 9.70039 18.8589 9.38839C19.2829 9.07639 19.5429 8.67239 19.6389 8.17639H19.9149C19.8029 8.76839 19.5189 9.24039 19.0629 9.59239C18.6069 9.94439 18.0509 10.1204 17.3949 10.1204ZM18.6429 6.00439C18.6429 5.30839 18.5349 4.79239 18.3189 4.45639C18.1029 4.11239 17.7669 3.94039 17.3109 3.94039C16.7749 3.94039 16.3589 4.12839 16.0629 4.50439C15.7669 4.88039 15.5989 5.38039 15.5589 6.00439H18.6429Z" fill="#EEC643"/>
<path d="M20.9055 10.0004V9.71239L24.6255 4.08439H22.2495L21.2655 5.94439H20.9655L21.1215 3.78439H26.0295V4.08439L22.3095 9.71239H24.8775L25.9335 7.70839H26.2455L26.0175 10.0004H20.9055Z" fill="#EEC643"/>
</svg>
